<svg width="32" height="311" viewBox="0 0 32 311" fill="none" xmlns="http://www.w3.org/2000/svg">
<rect width="32" height="311" fill="#282C33"/>
<path fill-rule="evenodd" clip-rule="evenodd" d="M15.5 191L15.5 0L16.5 4.37114e-08L16.5 191L15.5 191Z" fill="#ABB2BF"/>
<path d="M15.5 205C9.69875 205 5 209.588 5 215.253C5 219.79 8.00562 223.622 12.1794 224.98C12.7044 225.07 12.9012 224.763 12.9012 224.493C12.9012 224.25 12.8881 223.442 12.8881 222.584C10.25 223.058 9.5675 221.956 9.3575 221.379C9.23938 221.084 8.7275 220.174 8.28125 219.931C7.91375 219.739 7.38875 219.264 8.26813 219.252C9.095 219.239 9.68563 219.995 9.8825 220.303C10.8275 221.853 12.3369 221.418 12.9406 221.148C13.0325 220.482 13.3081 220.033 13.61 219.777C11.2737 219.521 8.8325 218.636 8.8325 214.715C8.8325 213.6 9.23938 212.677 9.90875 211.959C9.80375 211.703 9.43625 210.652 10.0138 209.242C10.0138 209.242 10.8931 208.973 12.9012 210.293C13.7413 210.062 14.6338 209.947 15.5263 209.947C16.4188 209.947 17.3113 210.062 18.1513 210.293C20.1594 208.96 21.0387 209.242 21.0387 209.242C21.6163 210.652 21.2488 211.703 21.1438 211.959C21.8131 212.677 22.22 213.587 22.22 214.715C22.22 218.649 19.7656 219.521 17.4294 219.777C17.81 220.097 18.1381 220.713 18.1381 221.674C18.1381 223.045 18.125 224.147 18.125 224.493C18.125 224.763 18.3219 225.083 18.8469 224.98C20.9314 224.293 22.7428 222.985 24.026 221.24C25.3092 219.495 25.9996 217.401 26 215.253C26 209.588 21.3013 205 15.5 205Z" fill="#ABB2BF"/>
<path fill-rule="evenodd" clip-rule="evenodd" d="M16.5 243C10.152 243 5 248.152 5 254.5C5 260.848 10.152 266 16.5 266C22.8365 266 28 260.848 28 254.5C28 248.152 22.8365 243 16.5 243ZM24.0958 248.301C25.5115 250.025 26.2951 252.182 26.3167 254.412C25.9918 254.351 22.7488 253.689 19.4814 254.1C19.4066 253.939 19.3434 253.764 19.2686 253.59C19.0688 253.116 18.8446 252.63 18.6203 252.167C22.2371 250.696 23.8844 248.576 24.0972 248.3L24.0958 248.301ZM16.5 244.696C18.9941 244.696 21.2768 245.631 23.0119 247.166C22.8365 247.416 21.3516 249.398 17.8599 250.708C16.2499 247.752 14.4674 245.332 14.1928 244.958C14.9491 244.781 15.7234 244.693 16.5 244.696ZM12.3212 245.619C13.6375 247.443 14.8535 249.338 15.9638 251.294C11.3739 252.516 7.32012 252.492 6.88312 252.492C7.19917 251.005 7.85438 249.611 8.79766 248.419C9.74094 247.228 10.9468 246.27 12.3212 245.621V245.619ZM6.67181 254.514V254.213C7.09588 254.227 11.8612 254.289 16.7631 252.817C17.0491 253.364 17.3108 253.926 17.5609 254.487L17.1728 254.599C12.1099 256.234 9.416 260.698 9.19031 261.074C7.56856 259.273 6.67131 256.936 6.67181 254.513V254.514ZM16.5 264.328C14.3172 264.332 12.1964 263.603 10.4769 262.258C10.6494 261.896 12.6461 258.055 18.1833 256.122C18.2092 256.109 18.2207 256.109 18.2466 256.097C19.1801 258.507 19.8814 261 20.341 263.543C19.1277 264.065 17.8205 264.332 16.5 264.328ZM21.9769 262.645C21.8763 262.045 21.3516 259.178 20.0679 255.647C23.1484 255.161 25.8423 255.959 26.1787 256.071C25.9692 257.398 25.4876 258.666 24.7643 259.797C24.0409 260.929 23.0914 261.898 21.9754 262.645H21.9769Z" fill="#ABB2BF"/>
<path d="M16 295C16 294.116 16.3687 293.268 17.0251 292.643C17.6815 292.018 18.5717 291.667 19.5 291.667C20.4283 291.667 21.3185 292.018 21.9749 292.643C22.6313 293.268 23 294.116 23 295C23 295.884 22.6313 296.732 21.9749 297.357C21.3185 297.982 20.4283 298.333 19.5 298.333C18.5717 298.333 17.6815 297.982 17.0251 297.357C16.3687 296.732 16 295.884 16 295ZM9 301.667C9 300.783 9.36875 299.935 10.0251 299.31C10.6815 298.685 11.5717 298.333 12.5 298.333H16V301.667C16 302.551 15.6313 303.399 14.9749 304.024C14.3185 304.649 13.4283 305 12.5 305C11.5717 305 10.6815 304.649 10.0251 304.024C9.36875 303.399 9 302.551 9 301.667ZM16 285V291.667H19.5C20.4283 291.667 21.3185 291.315 21.9749 290.69C22.6313 290.065 23 289.217 23 288.333C23 287.449 22.6313 286.601 21.9749 285.976C21.3185 285.351 20.4283 285 19.5 285H16ZM9 288.333C9 289.217 9.36875 290.065 10.0251 290.69C10.6815 291.315 11.5717 291.667 12.5 291.667H16V285H12.5C11.5717 285 10.6815 285.351 10.0251 285.976C9.36875 286.601 9 287.449 9 288.333ZM9 295C9 295.884 9.36875 296.732 10.0251 297.357C10.6815 297.982 11.5717 298.333 12.5 298.333H16V291.667H12.5C11.5717 291.667 10.6815 292.018 10.0251 292.643C9.36875 293.268 9 294.116 9 295Z" fill="#ABB2BF"/>
</svg>
